HIERARCHY
ROOT Hips
{
	OFFSET 0.000000 0.000000 0.000000
	CHANNELS 6 Xposition Yposition Zposition Zrotation Yrotation Xrotation 
	JOINT LHipJoint
	{
		OFFSET 0.000000 0.000000 0.000000
		CHANNELS 3 Zrotation Yrotation Xrotation
		JOINT LeftUpLeg
		{
			OFFSET 1.363060 -1.794630 0.839290
			CHANNELS 3 Zrotation Yrotation Xrotation
			JOINT LeftLeg
			{
				OFFSET 2.448110 -6.726130 0.000000
				CHANNELS 3 Zrotation Yrotation Xrotation
				JOINT LeftFoot
				{
					OFFSET 2.562200 -7.039590 0.000000
					CHANNELS 3 Zrotation Yrotation Xrotation
					JOINT LeftToeBase
					{
						OFFSET 0.157640 -0.433110 2.322550
						CHANNELS 3 Zrotation Yrotation Xrotation
						End Site
						{
							OFFSET 0.000000 0.000000 0.000000
						}
					}
				}
			}
		}
	}
	JOINT RHipJoint
	{
		OFFSET 0.000000 0.000000 0.000000
		CHANNELS 3 Zrotation Yrotation Xrotation
		JOINT RightUpLeg
		{
			OFFSET -1.305520 -1.794630 0.839290
			CHANNELS 3 Zrotation Yrotation Xrotation
			JOINT RightLeg
			{
				OFFSET -2.542530 -6.985550 0.000000
				CHANNELS 3 Zrotation Yrotation Xrotation
				JOINT RightFoot
				{
					OFFSET -2.568260 -7.056230 0.000000
					CHANNELS 3 Zrotation Yrotation Xrotation
					JOINT RightToeBase
					{
						OFFSET -0.164730 -0.452590 2.363150
						CHANNELS 3 Zrotation Yrotation Xrotation
						End Site
						{
							OFFSET 0.000000 0.000000 0.000000
						}
					}
				}
			}
		}
	}
	JOINT LowerBack
	{
		OFFSET 0.000000 0.000000 0.000000
		CHANNELS 3 Zrotation Yrotation Xrotation
		JOINT Spine
		{
			OFFSET 0.028270 2.035590 -0.193380
			CHANNELS 3 Zrotation Yrotation Xrotation
			JOINT Spine1
			{
				OFFSET 0.056720 2.048850 -0.042750
				CHANNELS 3 Zrotation Yrotation Xrotation
				JOINT Neck
				{
					OFFSET 0.000000 0.000000 0.000000
					CHANNELS 3 Zrotation Yrotation Xrotation
					JOINT Neck1
					{
						OFFSET -0.054170 1.746240 0.172020
						CHANNELS 3 Zrotation Yrotation Xrotation
						JOINT Head
						{
							OFFSET 0.104070 1.761360 -0.123970
							CHANNELS 3 Zrotation Yrotation Xrotation
							End Site
							{
								OFFSET 0.000000 0.000000 0.000000
							}
						}
					}
				}
				JOINT LeftShoulder
				{
					OFFSET 0.000000 0.000000 0.000000
					CHANNELS 3 Zrotation Yrotation Xrotation
					JOINT LeftArm
					{
						OFFSET 3.362410 1.200890 -0.311210
						CHANNELS 3 Zrotation Yrotation Xrotation
						JOINT LeftForeArm
						{
							OFFSET 4.983000 -0.000000 -0.000000
							CHANNELS 3 Zrotation Yrotation Xrotation
							JOINT LeftHand
							{
								OFFSET 3.483560 -0.000000 -0.000000
								CHANNELS 3 Zrotation Yrotation Xrotation
								JOINT LeftFingerBase
								{
									OFFSET 0.000000 0.000000 0.000000
									CHANNELS 3 Zrotation Yrotation Xrotation
									JOINT LeftHandIndex1
									{
										OFFSET 0.715260 -0.000000 -0.000000
										CHANNELS 3 Zrotation Yrotation Xrotation
										End Site
										{
											OFFSET 0.000000 0.000000 0.000000
										}
									}
								}
								JOINT LThumb
								{
									OFFSET 0.000000 0.000000 0.000000
									CHANNELS 3 Zrotation Yrotation Xrotation
									End Site
									{
										OFFSET 0.000000 0.000000 0.000000
									}
								}
							}
						}
					}
				}
				JOINT RightShoulder
				{
					OFFSET 0.000000 0.000000 0.000000
					CHANNELS 3 Zrotation Yrotation Xrotation
					JOINT RightArm
					{
						OFFSET -3.136600 1.374050 -0.404650
						CHANNELS 3 Zrotation Yrotation Xrotation
						JOINT RightForeArm
						{
							OFFSET -5.241900 -0.000000 -0.000000
							CHANNELS 3 Zrotation Yrotation Xrotation
							JOINT RightHand
							{
								OFFSET -3.444170 -0.000000 -0.000000
								CHANNELS 3 Zrotation Yrotation Xrotation
								JOINT RightFingerBase
								{
									OFFSET 0.000000 0.000000 0.000000
									CHANNELS 3 Zrotation Yrotation Xrotation
									JOINT RightHandIndex1
									{
										OFFSET -0.622530 -0.000000 -0.000000
										CHANNELS 3 Zrotation Yrotation Xrotation
										End Site
										{
											OFFSET 0.000000 0.000000 0.000000
										}
									}
								}
								JOINT RThumb
								{
									OFFSET 0.000000 0.000000 0.000000
									CHANNELS 3 Zrotation Yrotation Xrotation
									End Site
									{
										OFFSET 0.000000 0.000000 0.000000
									}
								}
							}
						}
					}
				}
			}
		}
	}
}
MOTION
Frames: 9
Frame Time: 0.008333
0.547671 17.828391 -27.784389 -7.372258 -9.422585 3.971895 -1.949634 3.404780 1.563100 -3.901914 -9.565938 -29.594669 -1.610172 5.483912 14.639102 -1.471135 9.884762 16.350762 1.394500 -7.470900 -21.118100 2.738068 -5.383104 6.817197 24.465834 9.646403 6.404779 -0.901314 -6.104384 24.959215 -0.393145 -0.163000 3.741283 -1.209800 6.977700 -19.649200 6.118747 3.451918 4.262941 3.880184 5.162141 2.407413 -1.908030 2.553407 -6.573715 -5.193939 -4.086784 -14.174360 1.965755 -4.510476 16.219898 -0.684300 -2.042200 8.542200 -7.152522 2.827995 -1.426616 -80.747685 14.263266 25.194986 13.769463 -23.523027 -3.111952 -0.590812 -1.186550 -0.924226 24.415774 25.525904 11.841500 -7.125000 0.000000 0.000000 -5.758000 58.899900 -1.960300 11.335612 -1.545402 -2.550934 69.677058 1.060653 25.662959 -13.723572 27.172342 -4.067092 1.026061 -0.606242 0.411982 -15.959229 26.452960 -7.876000 7.125000 0.000000 0.000000 7.809400 -2.232300 7.570800
0.561387 17.832912 -27.675070 -7.307794 -9.342348 3.894370 -1.938238 3.412611 1.584151 -4.064762 -9.640491 -29.587075 -1.574019 5.631855 15.150777 -1.147701 9.026291 16.976518 1.434265 -7.571410 -21.420037 2.706956 -5.385713 6.824991 24.377944 9.546632 6.533221 -0.976231 -6.212375 25.308207 -0.358998 -0.230546 4.309329 -1.257426 7.107408 -20.034393 6.172285 3.444518 4.151323 3.778722 5.140961 2.573067 -1.989181 2.552927 -6.355892 -5.015825 -4.121979 -14.711216 1.960792 -4.537172 16.436943 -0.721564 -2.036789 8.702178 -7.165778 2.844127 -1.433139 -80.660517 14.042340 25.213802 13.717513 -23.455091 -3.086655 -0.589098 -1.222404 -1.059435 24.486639 26.549484 12.298566 -7.125000 0.000000 0.000000 -6.187705 60.012601 -2.282554 11.329633 -1.524709 -2.531578 69.844405 1.318332 25.260561 -13.636171 27.035447 -4.025065 1.025071 -0.600378 0.554041 -16.015713 26.199376 -7.833274 7.125000 0.000000 0.000000 7.752739 -2.487479 7.478815
0.575006 17.837392 -27.565532 -7.235059 -9.263517 3.816617 -1.928004 3.420792 1.605275 -4.233067 -9.720154 -29.576275 -1.538100 5.778013 15.659454 -0.828899 8.174990 17.586389 1.470488 -7.662953 -21.695048 2.676023 -5.389054 6.832912 24.281321 9.451808 6.658793 -1.051780 -6.322242 25.661221 -0.324722 -0.299549 4.879414 -1.305096 7.237015 -20.419384 6.212248 3.436894 4.040050 3.680112 5.118892 2.728848 -2.061420 2.551736 -6.148909 -4.846972 -4.154287 -15.217985 1.956498 -4.561168 16.650195 -0.756522 -2.030780 8.855933 -7.178481 2.859754 -1.439437 -80.580673 13.840877 25.220998 13.666670 -23.388704 -3.061887 -0.587522 -1.257629 -1.168618 24.548356 27.563700 12.746084 -7.125000 0.000000 0.000000 -6.626714 61.112512 -2.608353 11.324322 -1.505237 -2.513294 70.004226 1.555159 24.866448 -13.549426 26.900722 -3.984069 1.024182 -0.591977 0.695407 -16.076931 25.900002 -7.779252 7.125000 0.000000 0.000000 7.689413 -2.790926 7.373801
0.586359 17.840937 -27.450871 -6.968794 -9.217574 3.733504 -1.944972 3.437150 1.628092 -4.529083 -9.919378 -29.490443 -1.507675 5.882415 16.097997 -0.618501 7.491476 17.824558 1.423832 -7.544679 -21.339972 2.649275 -5.409497 6.843789 23.980356 9.472749 6.717213 -1.142096 -6.475996 26.108352 -0.287439 -0.402644 5.497221 -1.353794 7.364273 -20.799626 5.934569 3.424048 3.936833 3.648221 5.076009 2.653602 -1.925105 2.533898 -6.195554 -4.894825 -4.119047 -15.020699 1.967875 -4.522001 16.774696 -0.737533 -2.010770 8.864049 -7.178242 2.863568 -1.440474 -80.672210 14.094863 24.956303 13.641721 -23.358554 -3.049490 -0.589175 -1.278160 -0.668792 24.396036 28.358795 12.970176 -7.125000 0.000000 0.000000 -7.283421 61.913118 -3.017130 11.334621 -1.514307 -2.520094 69.987939 1.304028 24.666219 -13.478025 26.816798 -3.967205 1.025666 -0.524215 0.820583 -16.248893 24.529169 -7.460878 7.125000 0.000000 0.000000 7.470119 -4.223839 6.963901
0.597675 17.844785 -27.336285 -6.691600 -9.159544 3.651146 -1.963221 3.453203 1.651223 -4.840771 -10.118299 -29.404848 -1.478473 5.984333 16.534717 -0.403960 6.789077 18.062538 1.355477 -7.359552 -20.789444 2.622830 -5.429575 6.854337 23.668130 9.482759 6.759902 -1.234489 -6.632799 26.564865 -0.251506 -0.503501 6.120459 -1.400082 7.485125 -21.160779 5.646273 3.406321 3.831924 3.614529 5.025842 2.575291 -1.784140 2.512607 -6.244960 -4.951007 -4.085303 -14.806788 1.980840 -4.485266 16.885719 -0.716891 -1.992718 8.864990 -7.177914 2.866721 -1.440853 -80.767088 14.343510 24.700511 13.601913 -23.305974 -3.031014 -0.591461 -1.295057 -0.237629 24.276546 29.009250 13.156532 -7.125000 0.000000 0.000000 -7.815158 62.569615 -3.350174 11.345142 -1.524179 -2.527758 69.969026 1.043956 24.476909 -13.411142 26.739549 -3.952279 1.026858 -0.457891 0.942843 -16.411416 23.192000 -7.146780 7.125000 0.000000 0.000000 7.260436 -5.623087 6.568370
0.608565 17.852028 -27.222549 -6.292017 -8.966147 3.577237 -1.995814 3.465859 1.677865 -5.327981 -10.313815 -29.321917 -1.462978 6.058425 16.951028 -0.143021 5.875168 18.298419 1.044096 -6.425665 -18.049854 2.599778 -5.445551 6.861204 23.229788 9.370342 6.626398 -1.350139 -6.823767 27.126470 -0.230691 -0.579293 6.804514 -1.419377 7.534231 -21.308149 5.239065 3.333944 3.708058 3.560665 4.894077 2.462659 -1.591087 2.452639 -6.325285 -5.100472 -4.068309 -14.406673 2.011588 -4.475759 16.845779 -0.677738 -1.996597 8.785562 -7.176602 2.862480 -1.433861 -80.899384 14.532365 24.544441 13.395702 -23.002181 -2.944440 -0.600830 -1.271260 -0.575495 24.524750 28.039725 12.920240 -7.125000 0.000000 0.000000 -6.947222 61.612093 -2.835018 11.358163 -1.543046 -2.545102 69.920702 0.683737 24.409881 -13.394871 26.737067 -3.959051 1.024785 -0.407663 1.032448 -16.468219 22.231861 -6.880575 7.125000 0.000000 0.000000 7.158395 -6.645283 6.333762
0.619153 17.859259 -27.109343 -5.894869 -8.756758 3.500667 -2.027824 3.478545 1.705480 -5.822438 -10.496240 -29.239259 -1.447746 6.131992 17.366670 0.119585 4.952622 18.547989 0.760563 -5.567123 -15.533985 2.576774 -5.460343 6.866929 22.800077 9.243247 6.483746 -1.469477 -7.017321 27.698676 -0.205821 -0.669731 7.496509 -1.442432 7.592488 -21.483159 4.835630 3.256748 3.593682 3.501477 4.756388 2.360670 -1.402738 2.389849 -6.400452 -5.236100 -4.057372 -14.051799 2.035774 -4.471697 16.817656 -0.643852 -2.002460 8.717438 -7.175797 2.858926 -1.427401 -81.013143 14.702049 24.411133 13.199910 -22.714284 -2.862137 -0.608841 -1.252130 -0.902076 24.747423 27.222300 12.729588 -7.125000 0.000000 0.000000 -6.197404 60.809003 -2.393160 11.370156 -1.560476 -2.560904 69.885611 0.350772 24.326436 -13.378868 26.733252 -3.964745 1.022484 -0.363292 1.111289 -16.502908 21.381784 -6.638539 7.125000 0.000000 0.000000 7.078295 -7.552218 6.134791
0.627578 17.866399 -26.999921 -5.515087 -8.433284 3.405116 -2.055676 3.491451 1.740035 -6.368595 -10.585271 -29.158556 -1.434379 6.201811 17.777530 0.394081 3.968470 18.895207 0.675673 -5.246044 -14.613982 2.554106 -5.466684 6.864508 22.431938 9.011448 6.275845 -1.615125 -7.229323 28.346505 -0.152023 -0.864647 8.245148 -1.492304 7.716020 -21.855336 4.459105 3.145179 3.547001 3.404319 4.576441 2.334604 -1.247948 2.306926 -6.438823 -5.273029 -4.089643 -14.019650 2.013154 -4.506466 16.873831 -0.647527 -2.022470 8.729944 -7.178613 2.860276 -1.424737 -80.994662 14.734983 24.440197 13.078451 -22.539776 -2.810299 -0.607154 -1.266288 -1.148155 24.787975 27.489844 12.864503 -7.125000 0.000000 0.000000 -6.290154 61.107520 -2.474170 11.374824 -1.567662 -2.565698 69.944910 0.212212 24.125884 -13.364785 26.719931 -3.962757 1.018560 -0.360697 1.113344 -16.379849 21.316817 -6.568913 7.125000 0.000000 0.000000 7.154711 -7.636955 6.190023
0.635877 17.873666 -26.890760 -5.161699 -8.114261 3.309264 -2.079856 3.505895 1.775706 -6.896030 -10.659644 -29.075953 -1.416222 6.277753 18.195998 0.647288 3.039562 19.183467 0.602256 -4.967600 -13.816290 2.531357 -5.471038 6.859137 22.094765 8.782357 6.064583 -1.764758 -7.442858 29.003894 -0.096111 -1.070216 9.016668 -1.539925 7.833518 -22.209588 4.115293 3.043306 3.509428 3.303886 4.412245 2.324414 -1.114247 2.230921 -6.463624 -5.289854 -4.130700 -14.061090 1.997124 -4.550102 16.957599 -0.653956 -2.043652 8.763906 -7.182552 2.863494 -1.422588 -80.955327 14.732358 24.480684 12.960015 -22.370043 -2.759978 -0.606110 -1.279781 -1.360236 24.830950 27.754051 12.999325 -7.125000 0.000000 0.000000 -6.379148 61.402815 -2.553532 11.378382 -1.571799 -2.567887 70.019477 0.112494 23.868364 -13.344424 26.695848 -3.958784 1.013075 -0.355167 1.092121 -16.224261 21.189738 -6.468282 7.125000 0.000000 0.000000 7.249512 -7.791390 6.250736
